<svg id="Layer_1" data-name="Layer 1" xmlns="http://www.w3.org/2000/svg" viewBox="0 0 3550.98 1330"><title>Black_large</title><path d="M2686,2001.58v347.75H2601.9V2001.58Z" transform="translate(-1420.21 -1465.47)"/><path d="M3112,2349.33h-84.11l-140.68-213.47v213.47h-84.1V2001.58h84.1L3027.85,2217V2001.58H3112Z" transform="translate(-1420.21 -1465.47)"/><path d="M3529.55,2001.58v347.75H3445v-145.1H3313.13v145.1H3229V2001.58h84.11v134.77H3445V2001.58Z" transform="translate(-1420.21 -1465.47)"/><path d="M3730.72,2068.47v72.8h117.56v63.45H3730.72v77.22H3863v67.39H3646.61V2001.58H3863v66.89Z" transform="translate(-1420.21 -1465.47)"/><path d="M4148.3,2349.33,4073.05,2218h-19.18v131.33h-84.11V2001.58h143.62q41.32,0,69.86,14.26t42.78,39.1q14.26,24.84,14.27,56.82,0,37.88-20.91,64.43t-60.74,36.4l82.63,136.74Zm-94.43-188.88H4106q25.08,0,36.89-11.06t11.8-32.72q0-20.65-12.05-32.46T4106,2072.4h-52.14Z" transform="translate(-1420.21 -1465.47)"/><path d="M4425.72,2001.58v347.75H4341.6V2001.58Z" transform="translate(-1420.21 -1465.47)"/><path d="M4792.64,2001.58v66.89H4698.2v280.86h-84.6V2068.47h-93.45v-66.89Z" transform="translate(-1420.21 -1465.47)"/><path d="M4971.19,2001.58v347.75h-84.11V2001.58Z" transform="translate(-1420.21 -1465.47)"/><path d="M2436.7,1677.41v372l-.43,9.66c-.25,4.7-.5,9.46-.74,14.16q-.66,15.87-1.3,31.74c-1,23.27-2,47.33-3.47,71.21-3.22,51.41-9.71,98.62-20,144.34-12,53.76-29,100.91-51.85,144.15-33.41,63.17-80.49,119.22-143.9,171.38-44.24,36.38-92.56,69.35-147.37,100.47V2629.74s60.32-42.25,88.41-65.33c53.76-44.23,93.23-91,120.83-143.16,18.93-35.82,33.1-75.42,43.3-121,9.16-40.84,15-83.34,18-129.87,1.42-22.88,2.41-46.4,3.34-69.22.43-10.71.86-21.41,1.36-32.11.25-4.95.49-9.84.74-14.73l.31-6.06V1703.71c-108-37.87-217.4-76.6-323.38-114.09l-55.87-19.8c-9.65-3.4-19.37-6.86-29-10.39a21.18,21.18,0,0,0-14.35,0c-9.65,3.53-19.37,7-29,10.39l-55.86,19.8c-106,37.49-215.43,76.22-323.39,114.09v344.54l.31,6.06c.25,4.89.5,9.78.74,14.73.5,10.7.93,21.4,1.37,32.11.92,22.82,1.91,46.34,3.34,69.22,2.9,46.53,8.78,89,17.94,129.87,10.21,45.59,24.37,85.19,43.3,121,27.6,52.16,67.07,98.93,120.83,143.16,42.2,34.71,88.66,66.08,142.18,95.84,12.86,7.17,25.92,14.16,39,21l.25-505.58-92.12-92H1605.44v-92.31h92.31l-92.31-92.12V1768.92h.13l.24.24,91.94,91.88v.18h.12l-.12-.18-.12-124.11,92.37-32.67v249.21h.18l91.87,91.93V1671.66s29.58-10.52,39.23-14a21.38,21.38,0,0,1,14.35,0c9.65,3.46,39.23,14,39.23,14V2045.4l91.87-91.93h.19V1704.26l92.37,32.67-.13,124.11-.12.18h.12V1861l92.18-92.12h.13v130.35l-15.22,15.16-77.09,77h92.31v92.31H2066.73l-92.12,92,.25,610a114.83,114.83,0,0,1-98.74-2.9c-25.62-13.24-52.1-26.92-78.27-41.46-58.4-32.54-109.44-67-156-105.29-63.41-52.16-110.49-108.21-143.9-171.38-22.83-43.24-39.84-90.39-51.85-144.15-10.27-45.72-16.76-92.93-20-144.34-1.48-23.88-2.47-47.94-3.46-71.21q-.66-15.87-1.3-31.74c-.25-4.7-.5-9.46-.75-14.16l-.43-9.66v-372l2.1-6.74c7.86-25,25.68-42.5,53.15-52.1,110-38.66,221.86-78.19,329.94-116.43l55.87-19.8c9.46-3.34,19-6.74,28.39-10.14a115.22,115.22,0,0,1,77.59,0c9.4,3.4,18.93,6.8,28.39,10.14l55.87,19.8c108.08,38.24,219.94,77.77,329.94,116.43,27.47,9.6,45.29,27.11,53.15,52.1Z" transform="translate(-1420.21 -1465.47)"/></svg>