<svg id="Layer_1" data-name="Layer 1" xmlns="http://www.w3.org/2000/svg" viewBox="0 0 1016.49 1330"><defs><style>.cls-1{fill:#fff;}</style></defs><title>White_small</title><path class="cls-1" d="M3704,1677.41v372l-.44,9.66c-.24,4.7-.49,9.46-.74,14.16q-.64,15.87-1.3,31.74c-1,23.27-2,47.33-3.46,71.21-3.22,51.41-9.72,98.62-20,144.34-12,53.76-29,100.91-51.84,144.15-33.41,63.17-80.49,119.22-143.91,171.38-44.23,36.38-92.55,69.35-147.37,100.47V2629.74s60.33-42.25,88.41-65.33c53.77-44.23,93.24-91,120.83-143.16,18.93-35.82,33.1-75.42,43.31-121,9.16-40.84,15-83.34,17.94-129.87,1.42-22.88,2.41-46.4,3.34-69.22.44-10.71.87-21.41,1.36-32.11.25-4.95.5-9.84.75-14.73l.31-6.06V1703.71c-108-37.87-217.41-76.6-323.39-114.09l-55.86-19.8c-9.66-3.4-19.37-6.86-29-10.39a21.18,21.18,0,0,0-14.35,0c-9.66,3.53-19.37,7-29,10.39l-55.87,19.8c-106,37.49-215.42,76.22-323.38,114.09v344.54l.31,6.06c.24,4.89.49,9.78.74,14.73.5,10.7.93,21.4,1.36,32.11.93,22.82,1.92,46.34,3.34,69.22,2.91,46.53,8.79,89,17.94,129.87,10.21,45.59,24.38,85.19,43.31,121,27.59,52.16,67.07,98.93,120.83,143.16,42.19,34.71,88.66,66.08,142.17,95.84,12.87,7.17,25.92,14.16,39,21l.25-505.58-92.12-92H2872.69v-92.31H2965l-92.31-92.12V1768.92h.12l.25.24L2965,1861v.18h.12l-.12-.18-.13-124.11,92.37-32.67v249.21h.19l91.87,91.93V1671.66s29.57-10.52,39.23-14a21.38,21.38,0,0,1,14.35,0c9.65,3.46,39.22,14,39.22,14V2045.4l91.88-91.93h.18V1704.26l92.37,32.67-.12,124.11-.13.18h.13V1861l92.18-92.12h.12v130.35l-15.21,15.16-77.09,77h92.3v92.31H3334l-92.12,92,.24,610a114.83,114.83,0,0,1-98.74-2.9c-25.61-13.24-52.09-26.92-78.26-41.46-58.41-32.54-109.45-67-156-105.29-63.42-52.16-110.5-108.21-143.91-171.38-22.83-43.24-39.84-90.39-51.84-144.15-10.27-45.72-16.77-92.93-20-144.34-1.49-23.88-2.48-47.94-3.47-71.21q-.64-15.87-1.3-31.74c-.25-4.7-.49-9.46-.74-14.16l-.43-9.66v-372l2.1-6.74c7.86-25,25.68-42.5,53.14-52.1,110-38.66,221.86-78.19,330-116.43l55.86-19.8c9.47-3.34,19-6.74,28.4-10.14a115.19,115.19,0,0,1,77.58,0c9.41,3.4,18.94,6.8,28.4,10.14l55.87,19.8c108.08,38.24,219.94,77.77,329.94,116.43,27.47,9.6,45.29,27.11,53.14,52.1Z" transform="translate(-2687.46 -1465.47)"/></svg>